<?xml version="1.0" encoding="utf-8"?>
<!-- Generator: Adobe Illustrator 22.0.1, SVG Export Plug-In . SVG Version: 6.00 Build 0)  -->
<svg version="1.1" id="レイヤー_1" xmlns="http://www.w3.org/2000/svg" xmlns:xlink="http://www.w3.org/1999/xlink" x="0px"
	 y="0px" viewBox="0 0 1083.6 1080" style="enable-background:new 0 0 1083.6 1080;" xml:space="preserve">
<style type="text/css">
	.st0{fill:#FFCF57;}
	.st1{opacity:0.7;}
	.st2{fill:#FF872E;}
	.st3{fill:none;}
	.st4{fill:#FF3300;}
	.st5{fill:#FFFFFF;}
	.st6{fill:#EFD8BB;}
	.st7{fill:#FFB8B8;}
	.st8{fill:#753E0C;}
	.st9{fill:#CC6600;}
	.st10{fill:#FFDCDC;}
</style>
<path class="st0" d="M744,863.5H336c-66,0-120-54-120-120v-408c0-66,54-120,120-120h408c66,0,120,54,120,120v408
	C864,809.5,810,863.5,744,863.5z"/>
<g class="st1">
	<polygon class="st2" points="216,658.2 540.5,540.1 216,540.1 	"/>
	<path class="st2" d="M216,335.5V422L540.5,540h0L229.9,279.5C221.1,296.2,216,315.3,216,335.5z"/>
	<path class="st2" d="M540.5,540.1L540.5,540.1L864,657.8V540L540.5,540.1L540.5,540.1L864,422.3v-86.8c0-20-4.9-38.8-13.7-55.4
		L540.5,540.1L540.5,540.1L540.5,540.1l187.4-324.6H597.7L540.5,540.1L540.5,540.1L540.5,540.1L540.5,540.1L230.4,800.3
		c20.3,37.6,60.1,63.2,105.6,63.2h17.8L540.5,540.1L540.5,540.1l-57,323.4h114L540.5,540.1L540.5,540.1l186.7,323.4H744
		c45.7,0,85.7-25.9,105.9-63.8L540.5,540.1z"/>
	<polygon class="st2" points="353.1,215.5 540.5,540 540.5,540 483.2,215.5 	"/>
</g>
<path class="st3" d="M744,863.5H336c-66,0-120-54-120-120v-408c0-66,54-120,120-120h408c66,0,120,54,120,120v408
	C864,809.5,810,863.5,744,863.5z"/>
<rect x="540.4" y="539.5" class="st4" width="0" height="0"/>
<polygon class="st4" points="540.4,539.5 540.4,539.5 540.4,539.5 540.4,539.5 "/>
<rect x="540.4" y="539.5" transform="matrix(0.4472 -0.8944 0.8944 0.4472 -183.8245 781.5671)" class="st4" width="0" height="0"/>
<polygon class="st4" points="540.4,539.5 540.4,539.5 540.4,539.5 540.4,539.5 "/>
<rect x="540.4" y="539.5" class="st4" width="0" height="0"/>
<polygon class="st4" points="540.4,539.5 540.4,539.5 540.4,539.5 540.4,539.5 "/>
<polygon class="st4" points="540.4,539.5 540.4,539.5 540.4,539.5 540.4,539.5 "/>
<rect x="540.4" y="539.5" class="st4" width="0" height="0"/>
<polygon class="st4" points="540.4,539.5 540.4,539.5 540.4,539.5 540.4,539.5 "/>
<polygon class="st4" points="540.4,539.5 540.4,539.5 540.4,539.5 540.4,539.5 "/>
<polygon class="st4" points="540.4,539.5 540.4,539.5 540.4,539.5 540.4,539.5 "/>
<rect x="540.4" y="539.5" transform="matrix(0.7071 -0.7071 0.7071 0.7071 -223.2109 540.1326)" class="st4" width="0" height="0"/>
<rect x="540.4" y="539.5" transform="matrix(0.7071 -0.7071 0.7071 0.7071 -223.2155 540.1284)" class="st4" width="0" height="0"/>
<rect x="540.4" y="539.5" class="st4" width="0" height="0"/>
<rect x="540.4" y="539.5" class="st4" width="0" height="0"/>
<rect x="540.4" y="539.5" class="st4" width="0" height="0"/>
<rect x="540.4" y="539.5" class="st4" width="0" height="0"/>
<rect x="540.4" y="539.5" class="st4" width="0" height="0"/>
<rect x="540.4" y="539.5" class="st4" width="0" height="0"/>
<rect x="540.4" y="539.5" class="st4" width="0" height="0"/>
<polygon class="st4" points="540.4,539.5 540.4,539.5 540.4,539.5 "/>
<rect x="540.4" y="539.5" class="st4" width="0" height="0"/>
<polygon class="st4" points="540.4,539.5 540.4,539.5 540.4,539.5 540.4,539.5 540.4,539.5 "/>
<rect x="540.4" y="539.5" class="st4" width="0" height="0"/>
<polygon class="st4" points="540.4,539.5 540.4,539.5 540.4,539.5 "/>
<polygon class="st4" points="540.4,539.5 540.4,539.5 540.4,539.5 540.4,539.5 540.4,539.5 540.4,539.5 "/>
<polygon class="st4" points="540.4,539.5 540.4,539.5 540.4,539.5 "/>
<rect x="540.4" y="539.5" class="st4" width="0" height="0"/>
<rect x="540.4" y="539.5" class="st4" width="0" height="0"/>
<polygon class="st4" points="540.4,539.5 540.4,539.5 540.4,539.5 540.4,539.5 "/>
<polygon class="st4" points="540.4,539.5 540.4,539.5 540.4,539.5 540.4,539.5 "/>
<polygon class="st4" points="540.4,539.5 540.4,539.5 540.4,539.5 "/>
<polygon class="st4" points="540.4,539.5 540.4,539.5 540.4,539.5 "/>
<polygon class="st4" points="540.4,539.5 540.4,539.5 540.4,539.5 540.4,539.5 540.4,539.5 "/>
<polygon class="st4" points="540.4,539.5 540.4,539.5 540.4,539.5 540.4,539.5 "/>
<rect x="540.4" y="539.5" class="st4" width="0" height="0"/>
<polygon class="st4" points="540.4,539.5 540.4,539.5 540.4,539.5 "/>
<polygon class="st4" points="540.4,539.5 540.4,539.5 540.4,539.5 540.4,539.5 540.4,539.5 "/>
<polygon class="st4" points="540.4,539.5 540.4,539.5 540.4,539.5 540.4,539.5 540.4,539.5 "/>
<polygon class="st4" points="540.4,539.5 540.4,539.5 540.4,539.5 540.4,539.5 540.4,539.5 "/>
<polygon class="st4" points="540.4,539.5 540.4,539.5 540.4,539.5 "/>
<polygon class="st4" points="540.4,539.5 540.4,539.5 540.4,539.5 540.4,539.5 540.4,539.5 "/>
<polygon class="st4" points="540.4,539.5 540.4,539.5 540.4,539.5 540.4,539.5 540.4,539.5 "/>
<rect x="540.4" y="539.5" class="st4" width="0" height="0"/>
<polygon class="st4" points="540.4,539.5 540.4,539.5 540.4,539.5 540.4,539.5 "/>
<polygon class="st4" points="540.4,539.5 540.4,539.5 540.4,539.5 540.4,539.5 "/>
<rect x="540.4" y="539.5" class="st4" width="0" height="0"/>
<polygon class="st4" points="540.4,539.5 540.4,539.5 540.4,539.5 540.4,539.5 "/>
<polygon class="st4" points="540.4,539.5 540.4,539.5 540.4,539.5 "/>
<polygon class="st4" points="540.4,539.5 540.4,539.5 540.4,539.5 540.4,539.5 "/>
<polygon class="st4" points="540.4,539.5 540.4,539.5 540.4,539.5 540.4,539.5 "/>
<polygon class="st4" points="540.4,539.5 540.4,539.5 540.4,539.5 540.4,539.5 "/>
<polygon class="st4" points="540.4,539.5 540.4,539.5 540.4,539.5 540.4,539.5 "/>
<polygon class="st4" points="540.4,539.5 540.4,539.5 540.4,539.5 "/>
<polygon class="st4" points="540.4,539.5 540.4,539.5 540.4,539.5 540.4,539.5 "/>
<polygon class="st4" points="540.4,539.5 540.4,539.5 540.4,539.5 "/>
<polygon class="st4" points="540.4,539.5 540.4,539.5 540.4,539.5 "/>
<polygon class="st4" points="540.4,539.5 540.4,539.5 540.4,539.5 "/>
<polygon class="st4" points="540.4,539.5 540.4,539.5 540.4,539.5 "/>
<rect x="540.4" y="539.5" class="st4" width="0" height="0"/>
<polygon class="st4" points="540.4,539.5 540.4,539.5 540.4,539.5 "/>
<polygon class="st4" points="540.4,539.5 540.4,539.5 540.4,539.5 540.4,539.5 "/>
<polygon class="st4" points="540.4,539.5 540.4,539.5 540.4,539.5 "/>
<polygon class="st4" points="540.4,539.5 540.4,539.5 540.4,539.5 "/>
<polygon class="st4" points="540.4,539.5 540.4,539.5 540.4,539.5 540.4,539.5 "/>
<polygon class="st4" points="540.4,539.5 540.4,539.5 540.4,539.5 540.4,539.5 "/>
<rect x="540.4" y="539.5" class="st4" width="0" height="0"/>
<rect x="540.4" y="539.5" class="st4" width="0" height="0"/>
<polygon class="st4" points="540.4,539.5 540.4,539.5 540.4,539.5 540.4,539.5 "/>
<polygon class="st4" points="540.4,539.5 540.4,539.5 540.4,539.5 540.4,539.5 540.4,539.5 "/>
<polygon class="st4" points="540.4,539.5 540.4,539.5 540.4,539.5 "/>
<polygon class="st4" points="540.4,539.5 540.4,539.5 540.4,539.5 540.4,539.5 "/>
<polygon class="st4" points="540.4,539.5 540.4,539.5 540.4,539.5 540.4,539.5 540.4,539.5 "/>
<polygon class="st4" points="540.4,539.5 540.4,539.5 540.4,539.5 540.4,539.5 540.4,539.5 "/>
<polygon class="st4" points="540.4,539.5 540.4,539.5 540.4,539.5 "/>
<polygon class="st4" points="540.4,539.5 540.4,539.5 540.4,539.5 540.4,539.5 "/>
<rect x="540.4" y="539.5" class="st4" width="0" height="0"/>
<rect x="540.4" y="539.5" class="st4" width="0" height="0"/>
<polygon class="st4" points="540.4,539.5 540.4,539.5 540.4,539.5 "/>
<polygon class="st4" points="540.4,539.5 540.4,539.5 540.4,539.5 540.4,539.5 "/>
<polygon class="st4" points="540.4,539.5 540.4,539.5 540.4,539.5 540.4,539.5 "/>
<polygon class="st4" points="540.4,539.5 540.4,539.5 540.4,539.5 540.4,539.5 "/>
<polygon class="st4" points="540.4,539.5 540.4,539.5 540.4,539.5 540.4,539.5 "/>
<polygon class="st4" points="540.4,539.5 540.4,539.5 540.4,539.5 540.4,539.5 "/>
<polygon class="st4" points="540.4,539.5 540.4,539.5 540.4,539.5 540.4,539.5 "/>
<polygon class="st4" points="540.4,539.5 540.4,539.5 540.5,539.5 540.4,539.5 "/>
<polygon class="st4" points="540.4,539.5 540.4,539.5 540.4,539.5 540.4,539.5 "/>
<rect x="540.4" y="539.5" class="st4" width="0" height="0"/>
<polygon class="st4" points="540.4,539.5 540.4,539.5 540.4,539.5 540.4,539.5 "/>
<polygon class="st4" points="540.4,539.5 540.4,539.5 540.4,539.5 540.4,539.5 "/>
<polygon class="st4" points="540.4,539.5 540.4,539.5 540.4,539.5 540.4,539.5 "/>
<polygon class="st4" points="540.4,539.5 540.4,539.5 540.4,539.5 540.4,539.5 "/>
<polygon class="st4" points="540.4,539.5 540.4,539.5 540.4,539.5 540.4,539.5 "/>
<polygon class="st4" points="540.4,539.5 540.4,539.5 540.4,539.5 "/>
<polygon class="st4" points="540.4,539.5 540.4,539.5 540.4,539.5 540.4,539.5 "/>
<polygon class="st4" points="540.4,539.5 540.4,539.5 540.4,539.5 540.4,539.5 "/>
<polygon class="st4" points="540.4,539.5 540.4,539.5 540.4,539.5 540.4,539.5 "/>
<polygon class="st4" points="540.4,539.5 540.4,539.5 540.4,539.5 540.4,539.5 "/>
<polygon class="st4" points="540.4,539.5 540.4,539.5 540.4,539.5 540.4,539.5 "/>
<polygon class="st4" points="540.4,539.5 540.4,539.5 540.4,539.5 540.4,539.5 "/>
<polygon class="st4" points="540.4,539.5 540.4,539.5 540.4,539.5 540.4,539.5 "/>
<polygon class="st4" points="540.4,539.5 540.4,539.5 540.4,539.5 "/>
<polygon class="st4" points="540.4,539.5 540.4,539.5 540.4,539.5 540.4,539.5 "/>
<polygon class="st4" points="540.4,539.5 540.4,539.5 540.4,539.5 "/>
<polygon class="st4" points="540.4,539.5 540.4,539.5 540.4,539.5 540.4,539.5 "/>
<rect x="540.4" y="539.5" class="st4" width="0" height="0"/>
<polygon class="st4" points="540.4,539.5 540.4,539.5 540.4,539.5 540.4,539.5 "/>
<polygon class="st4" points="540.4,539.5 540.4,539.5 540.4,539.5 540.4,539.5 "/>
<rect x="540.4" y="539.5" transform="matrix(0.8944 -0.4472 0.4472 0.8944 -184.2251 298.6282)" class="st4" width="0" height="0"/>
<rect x="540.4" y="539.5" class="st4" width="0" height="0"/>
<polygon class="st4" points="540.4,539.5 540.4,539.5 540.4,539.5 540.4,539.5 "/>
<polygon class="st4" points="540.4,539.5 540.4,539.5 540.4,539.5 540.4,539.5 "/>
<polygon class="st4" points="540.4,539.5 540.4,539.5 540.4,539.5 540.4,539.5 "/>
<polygon class="st4" points="540.4,539.5 540.4,539.5 540.4,539.5 540.4,539.5 "/>
<polygon class="st4" points="540.4,539.5 540.4,539.5 540.4,539.5 "/>
<polygon class="st4" points="540.4,539.5 540.4,539.5 540.4,539.5 540.4,539.5 "/>
<polygon class="st4" points="540.4,539.5 540.4,539.5 540.4,539.5 540.4,539.5 "/>
<polygon class="st4" points="540.4,539.5 540.4,539.5 540.4,539.5 "/>
<polygon class="st4" points="540.4,539.5 540.4,539.5 540.4,539.5 540.4,539.5 540.4,539.5 "/>
<polygon class="st4" points="540.4,539.5 540.4,539.5 540.4,539.5 "/>
<polygon class="st4" points="540.4,539.5 540.4,539.5 540.4,539.5 540.4,539.5 "/>
<polygon class="st4" points="540.4,539.5 540.4,539.5 540.4,539.5 540.4,539.5 540.4,539.5 "/>
<polygon class="st4" points="540.4,539.5 540.4,539.5 540.4,539.5 540.4,539.5 "/>
<polygon class="st4" points="540.4,539.5 540.4,539.5 540.4,539.5 540.4,539.5 "/>
<polygon class="st4" points="540.4,539.5 540.4,539.5 540.4,539.5 "/>
<polygon class="st4" points="540.4,539.5 540.4,539.5 540.4,539.5 540.4,539.5 "/>
<polygon class="st4" points="540.4,539.5 540.4,539.5 540.4,539.5 540.4,539.5 540.4,539.5 "/>
<polygon class="st4" points="540.4,539.5 540.4,539.5 540.4,539.5 540.4,539.5 "/>
<polygon class="st4" points="540.4,539.5 540.4,539.5 540.4,539.5 540.4,539.5 "/>
<rect x="540.4" y="539.5" class="st4" width="0" height="0"/>
<polygon class="st4" points="540.4,539.5 540.4,539.5 540.4,539.5 "/>
<polygon class="st4" points="540.4,539.5 540.4,539.5 540.4,539.5 540.4,539.5 "/>
<rect x="540.4" y="539.5" class="st4" width="0" height="0"/>
<rect x="540.4" y="539.5" class="st4" width="0" height="0"/>
<polygon class="st4" points="540.4,539.5 540.4,539.5 540.4,539.5 540.4,539.5 540.4,539.5 "/>
<polygon class="st4" points="540.4,539.5 540.4,539.5 540.4,539.5 540.4,539.5 540.4,539.5 "/>
<circle class="st5" cx="580.5" cy="346" r="40.5"/>
<path class="st6" d="M775.8,502.5c-1.6-51.6-6.6-115.2-16.2-152c-1.5-5.7-3.8-11.1-6.2-15.7c-4.9-9.4-15.5-14.4-25.9-12.1
	c-2.5,0.6-5.1,1.3-7.6,2.3c-25,10-63,34.5-90,51.7c-2.7,1.7-10.6,2.1-13.7,1.2c-24.1-6.5-49.7-10-76.3-10c-2.9,0-5.9,0-8.8,0.1
	c-2,0.1-3.1-2.3-1.7-3.8c6.9-7.6,11-18,10.5-29.2c-1-21-18.3-37.9-39.3-38.5c-22.9-0.7-41.7,17.7-41.7,40.5
	c0,14.1,7.2,26.5,18.1,33.7c1.7,1.1,1.2,3.6-0.8,4.1c-4.2,0.9-8.4,2-12.5,3.1c-3.1,0.8-11.1,0.5-13.8-1.2c-27-17.1-65-41.7-90-51.7
	c-2.4-1-5-1.7-7.5-2.3c-10.3-2.3-21,2.7-25.9,12.1c-2.4,4.6-4.7,10-6.2,15.7c-9.5,36.7-14.5,100.1-16.1,151.7
	c-10.5,23.7-16.3,49.4-16.3,76.2c0,118.7,94.5,204.1,252,204.1S792,697,792,578.4C792,551.6,786.3,526.1,775.8,502.5z"/>
<path class="st5" d="M756,503.5c-1.5-47.8-3.2-109.9-12-144c-1.4-5.3-3.5-10.3-5.7-14.6c-4.5-8.7-14.4-7.7-24.1-5.6
	c-2.3,0.5-4.7,1.2-7,2.1c-23.2,9.3-58.5,22.3-83.6,38.2c-2.5,1.6-9.9,1.9-12.8,1.2c-22.3-6-46.1-9.3-70.8-9.3c-2.7,0-5.5,0-8.2,0.1
	c-1.9,0.1-2.8-2.1-1.6-3.5c6.5-7.1,10.2-16.6,9.7-27.1c-0.9-19.4-17-35.1-36.4-35.6c-21.3-0.6-38.7,16.4-38.7,37.5
	c0,13,6.7,24.5,16.8,31.2c1.5,1,1.1,3.4-0.7,3.8c-3.9,0.9-7.8,1.8-11.6,2.8c-2.9,0.8-10.3,0.5-12.9-1.1
	c-25.1-15.8-60.4-29-83.6-38.2c-2.3-0.9-4.6-1.6-6.9-2.1c-9.6-2.2-19.5-3.2-24,5.5c-2.2,4.3-4.4,9.3-5.7,14.6
	c-8.8,34-10.7,96.3-12.2,144c-9.8,21.9-18,47.1-18,72c0,109.9,87.8,179,234,179s234-69.1,234-179C774,550.7,765.7,525.3,756,503.5z"
	/>
<g>
	<polygon class="st7" points="501.2,601.2 541.2,674.5 578.8,601.2 	"/>
	<path class="st8" d="M541.2,684.5c-3.5,0-6.8-1.8-8.6-4.9l-58.2-96.9c-2.8-4.7-1.3-10.9,3.4-13.7c4.7-2.8,10.9-1.3,13.7,3.4
		l49.6,82.6l49.6-82.6c2.8-4.7,9-6.3,13.7-3.4c4.7,2.8,6.3,9,3.4,13.7l-58.2,96.9C548,682.6,544.7,684.5,541.2,684.5z"/>
	<path class="st8" d="M585,602.6h-90c-5.5,0-10-4.5-10-10s4.5-10,10-10h90c5.5,0,10,4.5,10,10S590.5,602.6,585,602.6z"/>
</g>
<path class="st8" d="M395,576.5c-3.1,0-6.2-1.5-8.2-4.2c-3.2-4.5-2.1-10.7,2.4-13.9l46-32.7c4.5-3.2,10.7-2.1,13.9,2.4
	c3.2,4.5,2.1,10.7-2.4,13.9l-46,32.7C399,575.9,397,576.5,395,576.5z"/>
<path class="st8" d="M685,576.5c-2,0-4-0.6-5.8-1.8l-46-32.7c-4.5-3.2-5.6-9.4-2.4-13.9c3.2-4.5,9.4-5.6,13.9-2.4l46,32.7
	c4.5,3.2,5.6,9.4,2.4,13.9C691.2,575,688.1,576.5,685,576.5z"/>
<g>
	<path class="st9" d="M540,514.5c-5.5,0-10-4.5-10-10v-64c0-5.5,4.5-10,10-10s10,4.5,10,10v64C550,510,545.5,514.5,540,514.5z"/>
	<path class="st9" d="M576,450.5h-72c-5.5,0-10-4.5-10-10s4.5-10,10-10h72c5.5,0,10,4.5,10,10S581.5,450.5,576,450.5z"/>
	<path class="st9" d="M576,486.5h-72c-5.5,0-10-4.5-10-10s4.5-10,10-10h72c5.5,0,10,4.5,10,10S581.5,486.5,576,486.5z"/>
	<path class="st9" d="M531,450.5c-3,0-6-1.4-8-4l-27-36c-3.3-4.4-2.4-10.7,2-14c4.4-3.3,10.7-2.4,14,2l27,36c3.3,4.4,2.4,10.7-2,14
		C535.2,449.8,533.1,450.5,531,450.5z"/>
	<path class="st9" d="M549,450.5c-2.1,0-4.2-0.7-6-2c-4.4-3.3-5.3-9.6-2-14l27-36c3.3-4.4,9.6-5.3,14-2s5.3,9.6,2,14l-27,36
		C555,449.1,552,450.5,549,450.5z"/>
</g>
<path class="st6" d="M472.5,386.7c12-4.2,19.2-6.2,32.5-7.8s18.2-1,35-1c8.2,0-5.2-36.8-10.2-46c1,12.5-7.5,28.5-26.7,31.5
	c-19.1,3-30.7-10.3-34.2-22.2C468.8,349.8,472.5,386.7,472.5,386.7z"/>
<path class="st6" d="M607.4,386.7c-12-4.2-19.2-6.2-32.5-7.8s-18.2-1-35-1c-8.2,0,5.2-36.8,10.2-46c-1,12.5,8.1,22.8,27.3,25
	c18.7,2.2,30-3.8,33.5-15.7C611.1,349.8,607.4,386.7,607.4,386.7z"/>
<path class="st8" d="M601,381.9c-3.4,0-6.8-1.8-8.6-4.9c-2.8-4.8-1.2-10.9,3.6-13.7c9.3-5.5,15.1-15.6,15.1-26.3
	c0-16.8-13.7-30.5-30.5-30.5S550,320.1,550,337c0,8.6,3.7,16.9,10.1,22.7c4.1,3.7,4.4,10,0.7,14.1c-3.7,4.1-10,4.4-14.1,0.7
	c-10.6-9.6-16.7-23.2-16.7-37.5c0-27.8,22.7-50.5,50.5-50.5S631,309.1,631,337c0,17.8-9.6,34.5-25,43.6
	C604.4,381.5,602.7,381.9,601,381.9z"/>
<path class="st8" d="M432,409.3c-3,0-6-1.4-8-4c-3.3-4.4-2.4-10.7,2-14l0.7-0.5c11.4-8.5,26.9-20.2,52.1-27c5.3-1.5,10.8,1.7,12.3,7
	c1.5,5.3-1.7,10.8-7,12.3c-21.5,5.8-34.7,15.8-45.3,23.7l-0.7,0.5C436.2,408.6,434.1,409.3,432,409.3z"/>
<path class="st8" d="M648,409.3c-2.1,0-4.2-0.7-6-2c-18.3-13.7-46.5-29.5-102-29.5c-5.5,0-10-4.5-10-10s4.5-10,10-10
	c62.1,0,94.8,19.1,114,33.5c4.4,3.3,5.3,9.6,2,14C654,407.9,651,409.3,648,409.3z"/>
<path class="st8" d="M540,792.5c-78.4,0-144.6-20.7-191.5-59.9c-22.8-19-40.4-41.9-52.4-68.1c-12-26.3-18.1-55.2-18.1-86.1
	c0-27,5.5-53.4,16.4-78.5c0.9-26.3,4.4-105.6,16.4-151.9c1.5-5.7,3.8-11.7,7-17.8c7-13.5,22.2-20.6,37-17.3c3.2,0.7,6.2,1.6,9,2.7
	c24.1,9.6,58.2,31.3,85.7,48.7l5.5,3.5c1.1,0.3,3.3,0.5,5,0.4c-7-8.8-10.9-19.8-10.9-31.3c0-13.8,5.4-26.6,15.3-36.2
	c9.9-9.6,22.9-14.7,36.7-14.3c26.2,0.8,47.7,21.8,49,48c0.4,8.2-1.2,16.2-4.5,23.4c25,0.4,49.6,3.9,73.3,10.3
	c1.4,0.3,4.9,0.1,6.3-0.3l4.4-2.8c27.8-17.7,62.3-39.6,86.7-49.4c2.8-1.1,5.8-2,9.1-2.8c14.8-3.3,30,3.8,37,17.3
	c3.2,6.1,5.5,12.1,7,17.8c12,46.4,15.5,125.9,16.4,152.3c10.8,25,16.3,51.3,16.3,78.2c0,30.9-6.1,59.9-18.1,86.1
	c-12,26.2-29.6,49.1-52.4,68.1C684.6,771.8,618.4,792.5,540,792.5z M347.4,332.1c-4.9,0-9.5,2.7-11.9,7.3c-2.5,4.8-4.3,9.4-5.4,13.6
	c-7.9,30.7-13.9,86.6-15.8,149.5c0,1.3-0.3,2.6-0.9,3.8c-10.3,23.1-15.5,47.3-15.5,72.2c0,56.2,21.9,104.2,63.3,138.9
	c43.2,36.1,105,55.2,178.7,55.2s135.4-19.1,178.7-55.2c41.4-34.6,63.3-82.6,63.3-138.9c0-24.7-5.2-48.9-15.3-71.9
	c-0.5-1.2-0.8-2.5-0.9-3.7c-2-63-7.9-119-15.8-149.8c-1.1-4.3-2.9-8.8-5.4-13.6c-2.8-5.4-8.9-8.3-14.8-6.9c-2.2,0.5-4.3,1.1-6,1.8
	c-22.7,9.1-57.8,31.4-83.4,47.7l-4.9,3.1c-6.1,3.9-17.2,3.7-21.7,2.5c-23.7-6.4-48.5-9.7-73.7-9.7c-2.8,0-5.7,0-8.5,0.1
	c-4.9,0.1-9.4-2.6-11.5-7.1c-2.1-4.5-1.2-9.7,2.1-13.4c5.5-6,8.3-13.8,7.9-22c-0.8-15.8-13.7-28.5-29.6-29
	c-8.3-0.2-16.2,2.8-22.2,8.6c-6,5.8-9.2,13.6-9.2,21.9c0,10.2,5.1,19.7,13.6,25.4c4.1,2.7,6.2,7.6,5.3,12.4
	c-0.9,4.8-4.6,8.6-9.4,9.7c-4.1,0.9-8.1,1.9-12,3c-4.4,1.2-15.8,1.4-21.8-2.4l-6-3.8c-25.3-16.1-60-38.1-82.3-47
	c-1.8-0.7-3.8-1.3-6-1.8C349.4,332.2,348.4,332.1,347.4,332.1z M454.6,367.8"/>
<ellipse class="st10" cx="414" cy="616" rx="36" ry="22.5"/>
<ellipse class="st10" cx="666" cy="616" rx="36" ry="22.5"/>
</svg>
